<svg id="Layer_1" data-name="Layer 1" xmlns="http://www.w3.org/2000/svg" viewBox="0 0 359.15 140.05"><defs><style>.cls-1{fill:#10100f;}.cls-2{fill:#191918;}</style></defs><path class="cls-1" d="M23.11,32.29c-.36,5.76-.8,11.52-1.06,17.28-.52,11.89-1.74,23.74-1.85,35.65-.1,10.91.51,21.76,3.3,32.58-3.94,0-7.74,0-11.54,0-2,0-1.08-1.25-.84-2,2-6.4,3.34-12.94,4.75-19.48,1.84-8.57,2.12-17.28,2.6-26q1.28-23.42,2.29-46.83c.1-2.26.82-2.85,3-2.8,6.19.13,6.2,0,8.11,5.95q13.55,41.87,27,83.75a4.47,4.47,0,0,0,1,2c3-8.92,5.9-17.73,8.81-26.55q10.41-31.48,20.74-63c.54-1.66,1.21-2.21,3-2.19,6.08.09,6.19,0,6.82,6.05,1,10.11,1.91,20.24,2.91,30.35,1.18,12,2.43,24,3.63,36,.77,7.68,1.51,15.36,2.3,23,.13,1.26-.1,1.81-1.53,1.73a64.68,64.68,0,0,0-7.1,0c-1.46.08-1.81-.49-1.93-1.8-.61-6.41-1.33-12.82-2-19.22Q94,81.16,92.46,65.45q-1.47-15-2.9-30.07a6.16,6.16,0,0,0-.73-3.19c-3.07,9.2-6.06,18.13-9,27.07Q70.48,87.4,61.23,115.57c-.55,1.7-1.16,2.58-3.12,2.33-2.33-.29-5.26.88-6.89-.46-1.46-1.2-1.53-4.08-2.21-6.23L24.59,34.58c-.26-.83-.55-1.64-.82-2.46Z"/><path class="cls-1" d="M172.62,102.59c-4.15,6.39-9,11-15.09,14-10.82,5.28-21.52,4.86-31.48-1.92-10.65-7.23-12.33-21.92-4.11-32.12,4.52-5.6,10.45-9.48,16.4-13.35,7.37-4.79,15.06-9.16,21.38-15.41a37.08,37.08,0,0,0,7.59-10.53c.72-1.52.36-2.3-.95-3.08-5-3-10-2.64-15.14-.5-3.86,1.63-7.17,4.21-10.71,6.41-3.23,2-6.52,3.9-10.46,4.24-1.45.12-2.19-.09-2.08-1.81.15-2.26,0-4.54.05-6.81,0-.68-.21-1.57,1-1.44,8.34.92,16.08-2.26,24.1-3.54,5.78-.92,11.59-1.21,17.28.65C178,39.81,182.91,46,183,54c.15,20.72.06,41.45.11,62.17,0,1.25-.25,1.79-1.63,1.72a67.26,67.26,0,0,0-7.1,0c-1.54.09-1.78-.53-1.76-1.87C172.66,111.85,172.62,107.67,172.62,102.59Zm-3.25-59.5c-4,9.83-11.42,16.22-19.27,22.19-3.4,2.58-6.82,5.14-10.16,7.8-9,7.2-14.35,16-12.14,28.07,1.55,8.47,7.94,14.67,16.46,15.12,11.51.6,20-4.7,26.27-14,1-1.46,2.13-2.85,2.12-4.86-.06-14.82,0-29.63-.06-44.45A16.62,16.62,0,0,0,169.37,43.09Z"/><path class="cls-1" d="M249.66,102.57c-4.14,6.44-9,11-15.11,14-10.83,5.27-21.53,4.84-31.48-1.94-10.63-7.25-12.3-22-4.06-32.14,4.52-5.59,10.45-9.47,16.4-13.34,7.37-4.79,15.06-9.16,21.38-15.41a38.74,38.74,0,0,0,7.48-10.29c.87-1.73.4-2.64-1.11-3.48-4.93-2.74-9.92-2.44-14.92-.3-3.86,1.64-7.17,4.21-10.71,6.41-3.23,2-6.52,3.88-10.47,4.22-1.5.13-2.14-.18-2-1.84.14-2.26,0-4.54,0-6.81,0-.93,0-1.52,1.32-1.38,7,.76,13.64-1.52,20.38-2.88,6.54-1.32,13.08-2.13,19.68-.31C254.57,39.32,260,45.64,260,54c.17,20.72.07,41.45.12,62.17,0,1.3-.33,1.75-1.66,1.69a67.25,67.25,0,0,0-7.1,0c-1.6.1-1.75-.62-1.73-1.9C249.7,111.83,249.66,107.65,249.66,102.57Zm-3.27-59.51c-4,9.9-11.42,16.25-19.26,22.23-3.39,2.58-6.82,5.13-10.15,7.8-9,7.2-14.35,16-12.13,28.08,1.55,8.46,7.94,14.65,16.47,15.1,11.51.6,20-4.72,26.27-14,1-1.46,2.11-2.85,2.11-4.87-.07-14.81,0-29.63-.06-44.44A16.67,16.67,0,0,0,246.39,43.06Z"/><path class="cls-1" d="M285.74,73.67c0,10,0,20,0,30a20.49,20.49,0,0,0,1.95,8.67c2.67,5.7,7.82,7.24,13.28,4,3.23-1.9,5.35-4.88,7.62-7.7s4-5.63,7.19-7.33c2.89-1.57,3.34-1.3,3.35,1.84,0,.18,0,.36,0,.54.25,4.14.92,8-5.28,9-3.68.54-6.74,3.72-10.33,5.25-14.67,6.26-27.59-1.77-28.19-17.69s-.11-31.8-.24-47.7c0-1.82,0-3.63,0-5.45-.16-5.11-1-6-6.08-6.86a17.13,17.13,0,0,1-1.87-.36c-.42-.11-.41-.53-.43-.89a.61.61,0,0,1,.61-.71c.27,0,.55,0,.82,0,9.2-.38,11.88-4.93,13.68-12.72a103.79,103.79,0,0,0,1.75-13.75c.08-.81-.05-2.43.88-2.35,1.11.1.92,1.48.93,2.28.13,8.09.26,16.18.21,24.26,0,2,.59,2.38,2.44,2.33,5-.13,10-.06,15,0,.77,0,1.91-.5,1.89,1.13s-1.15,1.1-1.92,1.11c-5,0-10,.11-15,0-1.95-.06-2.4.56-2.38,2.43.08,10.27,0,20.54,0,30.8Z"/><path class="cls-2" d="M329.68,80.39c0-12.35.09-22.11,0-34.47,0-2.06,6.68-4,8.66-8.94.5-1.24,2-1.79,2-.34-.09,3.9,0,13.82,0,17.72,0,23.81,0,41,.05,59.57,0,2.16-.36,2.61-2.49,2.93-2.71.41-6.5.37-7.73-.87-.44-.24-.42-2.21-.42-4.74C329.67,100.52,329.68,91.12,329.68,80.39Z"/><path class="cls-1" d="M341.08,14a6.13,6.13,0,1,1-12.25,0,6.13,6.13,0,1,1,12.25,0Z"/></svg>