<?xml version="1.0" encoding="UTF-8"?>
<svg id="Layer_1" xmlns="http://www.w3.org/2000/svg" version="1.1" viewBox="0 0 94.87 108.42">
  <!-- Generator: Adobe Illustrator 30.3.0, SVG Export Plug-In . SVG Version: 2.1.3 Build 182)  -->
  <defs>
    <style>
      .st0 {
        fill: none;
        stroke: #f1eae2;
        stroke-miterlimit: 10;
      }

      .st1 {
        fill: #f1eae2;
      }
    </style>
  </defs>
  <path class="st1" d="M18.51,22.27c-.29,4.63-.64,9.25-.85,13.88-.42,9.55-1.4,19.08-1.49,28.64-.08,8.76.41,17.48,2.65,26.17h-9.27c-1.59,0-.86-1-.67-1.63,1.58-5.13,2.68-10.33,3.81-15.63,1.49-6.89,1.71-13.88,2.09-20.86.67-12.54,1.28-25.08,1.85-37.62.08-1.82.65-2.29,2.42-2.25,5,.11,5,0,6.52,4.78,7.25,22.42,14.49,44.84,21.72,67.25.11.61.39,1.18.81,1.65,2.38-7.16,4.74-14.24,7.08-21.32,5.57-16.89,11.12-33.75,16.65-50.6.17-1.13,1.23-1.91,2.36-1.74.01,0,.02,0,.03,0,4.88.07,5,0,5.48,4.86.84,8.14,1.53,16.23,2.3,24.35,1,9.65,2,19.29,3,28.94.62,6.16,1.2,12.33,1.84,18.49.11,1-.08,1.45-1.23,1.4-1.9-.11-3.8-.11-5.7,0-1.18.07-1.46-.39-1.56-1.44-.48-5.16-1.06-10.3-1.58-15.45-.84-8.41-1.68-16.83-2.51-25.24-.84-8.05-1.63-16.1-2.37-24.16.04-.89-.17-1.77-.59-2.56-2.46,7.39-4.87,14.56-7.24,21.74-5,15.08-9.98,30.16-14.93,45.24-.44,1.37-.74,2.29-1.23,2.23-2,0-6.68.14-6.83-.25-.93-2.36-1.21-3.76-1.76-5.48-6.53-20.52-13.06-41.04-19.61-61.56-.21-.66-.44-1.32-.66-2l-.53.16Z"/>
  <path class="st0" d="M15.94,84.18c0-15.31,14-27.72,31.3-27.72s31.31,12.41,31.31,27.72"/>
</svg>